<?xml version="1.0" encoding="utf-8"?>
<!-- Generator: Adobe Illustrator 25.0.0, SVG Export Plug-In . SVG Version: 6.00 Build 0)  -->
<svg version="1.1" id="Laag_1" xmlns="http://www.w3.org/2000/svg" xmlns:xlink="http://www.w3.org/1999/xlink" x="0px" y="0px"
	 viewBox="0 0 546.68 547.96" style="enable-background:new 0 0 546.68 547.96;" xml:space="preserve">
<style type="text/css">
	.st0{display:none;fill:#8AA6D7;}
	.st1{fill:#8AA6D7;}
	.st2{fill:#EA5378;}
	.st3{fill:#162036;}
	.st4{display:none;fill:#597ABC;}
	.st5{fill:#172037;}
	.st6{fill:#EF7F4D;}
	.st7{fill:#5DB56D;}
	.st8{fill:#597ABC;}
	.st9{fill:#FCDC3A;}
	.st10{fill:#F18A6B;}
	.st11{fill:#FFFFFF;}
	.st12{fill:#1D1E1B;}
	.st13{fill:#E83B3B;}
</style>
<path id="LICHTBLAUW_ONDER_6_" class="st0" d="M547.41,1.03H7.14l540.27,540.27V1.03z"/>
<g id="LICHTBLAUW_BOVEN_4_">
	<path class="st1" d="M423.92,114.87h75.24l-75.24,75.25V114.87z"/>
	<path class="st1" d="M423.92,114.87h-75.26l75.26-75.25V114.87z"/>
</g>
<g id="KLEUR_6_">
	<path class="st2" d="M246.4,120.66c-8.37-7.55-29.65-18.29-49.12,0.49C206.1,128.69,228,139.43,246.4,120.66z"/>
	<path class="st2" d="M245.91,71.54c7.71,8.22,18.87,29.28,0.49,49.12C238.68,111.99,227.51,90.31,245.91,71.54z"/>
	<path class="st2" d="M246.4,120.66c8.36,7.55,29.65,18.29,49.12-0.49C286.7,112.62,264.8,101.89,246.4,120.66z"/>
	<path class="st2" d="M246.89,169.77c-7.72-8.22-18.88-29.28-0.49-49.12C254.13,129.32,265.29,151,246.89,169.77z"/>
	<path class="st2" d="M421.11,297.12c-8.37-7.55-29.65-18.29-49.12,0.49C380.81,305.16,402.71,315.89,421.11,297.12z"/>
	<path class="st2" d="M420.61,248.01c7.72,8.22,18.88,29.28,0.49,49.12C413.38,288.46,402.22,266.78,420.61,248.01z"/>
	<path class="st2" d="M421.11,297.12c8.37,7.55,29.65,18.29,49.12-0.49C461.4,289.09,439.5,278.35,421.11,297.12z"/>
	<path class="st2" d="M421.6,346.24c-7.71-8.22-18.87-29.28-0.49-49.12C428.83,305.78,440,327.47,421.6,346.24z"/>
</g>
<path class="st3" d="M245.14,118.06c-0.75-17.93-12.25-54.1-55.3-55.29C191.09,81.2,203.29,118.06,245.14,118.06z"/>
<path class="st3" d="M300.43,62.77c-0.75,17.93-12.25,54.1-55.29,55.29C246.38,99.63,258.58,62.77,300.43,62.77z"/>
<path class="st3" d="M245.14,118.07c0.74,17.93,12.25,54.1,55.29,55.29C299.18,154.93,286.97,118.07,245.14,118.07z"/>
<path class="st3" d="M189.85,173.36c0.74-17.93,12.25-54.1,55.29-55.29C243.88,136.5,231.68,173.36,189.85,173.36z"/>
<path class="st3" d="M422.65,295.58c-0.75-17.93-12.25-54.1-55.3-55.29C368.6,258.72,380.81,295.58,422.65,295.58z"/>
<path class="st3" d="M477.94,240.29c-0.75,17.93-12.25,54.1-55.3,55.29C423.89,277.15,436.1,240.29,477.94,240.29z"/>
<path class="st3" d="M422.65,295.58c0.74,17.93,12.25,54.1,55.29,55.29C476.69,332.45,464.49,295.58,422.65,295.58z"/>
<path class="st3" d="M367.35,350.88c0.75-17.93,12.25-54.1,55.3-55.29C421.4,314.01,409.19,350.88,367.35,350.88z"/>
<path class="st4" d="M497.61,58.76c30.22,34.32,26.88,86.64-7.44,116.86c-34.32,30.21-86.64,26.88-116.85-7.45L497.61,58.76z"/>
<path class="st2" d="M373.31,168.17c-30.21-34.32-26.88-86.64,7.44-116.86c34.32-30.21,86.64-26.88,116.86,7.45L373.31,168.17z"/>
<path class="st5" d="M436.14,114.13c0.54-13.05,8.91-39.38,40.25-40.25C475.48,87.31,466.61,114.13,436.14,114.13z"/>
<path class="st5" d="M395.89,73.88c0.54,13.05,8.91,39.38,40.25,40.25C435.23,100.73,426.34,73.88,395.89,73.88z"/>
<path class="st5" d="M436.14,114.15c-0.54,13.05-8.93,39.38-40.25,40.25C396.79,140.98,405.68,114.15,436.14,114.15z"/>
<path class="st5" d="M476.39,154.4c-0.54-13.06-8.91-39.39-40.25-40.26C437.05,127.56,445.93,154.4,476.39,154.4z"/>
<path id="LICHTBLAUW_ONDER" class="st0" d="M547.41,1.03H7.14l540.27,540.27V1.03z"/>
<path class="st6" d="M425.14,112.57V41.91l70.66,70.66H425.14z"/>
<path class="st3" d="M423.92,114.87v75.25l-75.26-75.25H423.92z"/>
<path class="st1" d="M423.92,114.87h75.24l-75.24,75.25V114.87z"/>
<path class="st0" d="M423.92,114.87h-75.26l75.26-75.25V114.87z"/>
<g id="KLEUR">
	<path class="st6" d="M246.4,120.66c-8.37-7.55-29.65-18.29-49.12,0.49C206.1,128.69,228,139.43,246.4,120.66z"/>
	<path class="st6" d="M245.91,71.54c7.71,8.22,18.87,29.28,0.49,49.12C238.68,111.99,227.51,90.31,245.91,71.54z"/>
	<path class="st6" d="M246.4,120.66c8.36,7.55,29.65,18.29,49.12-0.49C286.7,112.62,264.8,101.89,246.4,120.66z"/>
	<path class="st6" d="M246.89,169.77c-7.72-8.22-18.88-29.28-0.49-49.12C254.13,129.32,265.29,151,246.89,169.77z"/>
	<path class="st6" d="M421.11,297.12c-8.37-7.55-29.65-18.29-49.12,0.49C380.81,305.16,402.71,315.89,421.11,297.12z"/>
	<path class="st6" d="M420.61,248.01c7.72,8.22,18.88,29.28,0.49,49.12C413.38,288.46,402.22,266.78,420.61,248.01z"/>
	<path class="st6" d="M421.11,297.12c8.37,7.55,29.65,18.29,49.12-0.49C461.4,289.09,439.5,278.35,421.11,297.12z"/>
	<path class="st6" d="M421.6,346.24c-7.71-8.22-18.87-29.28-0.49-49.12C428.83,305.78,440,327.47,421.6,346.24z"/>
</g>
<path class="st3" d="M245.14,118.06c-0.75-17.93-12.25-54.1-55.3-55.29C191.09,81.2,203.29,118.06,245.14,118.06z"/>
<path class="st3" d="M300.43,62.77c-0.75,17.93-12.25,54.1-55.29,55.29C246.38,99.63,258.58,62.77,300.43,62.77z"/>
<path class="st3" d="M245.14,118.07c0.74,17.93,12.25,54.1,55.29,55.29C299.18,154.93,286.97,118.07,245.14,118.07z"/>
<path class="st3" d="M189.85,173.36c0.74-17.93,12.25-54.1,55.29-55.29C243.88,136.5,231.68,173.36,189.85,173.36z"/>
<path class="st3" d="M422.65,295.58c-0.75-17.93-12.25-54.1-55.3-55.29C368.6,258.72,380.81,295.58,422.65,295.58z"/>
<path class="st3" d="M477.94,240.29c-0.75,17.93-12.25,54.1-55.3,55.29C423.89,277.15,436.1,240.29,477.94,240.29z"/>
<path class="st3" d="M422.65,295.58c0.74,17.93,12.25,54.1,55.29,55.29C476.69,332.45,464.49,295.58,422.65,295.58z"/>
<path class="st3" d="M367.35,350.88c0.75-17.93,12.25-54.1,55.3-55.29C421.4,314.01,409.19,350.88,367.35,350.88z"/>
<path id="LICHTBLAUW_ONDER_5_" class="st0" d="M547.87,0.26H-0.31l548.18,548.18V0.26z"/>
<g id="KLEUR_5_">
	<path class="st7" d="M241.46,122.64c-8.5-7.66-30.09-18.56-49.83,0.5C200.57,130.79,222.79,141.68,241.46,122.64z"/>
	<path class="st7" d="M240.96,72.81c7.82,8.34,19.15,29.71,0.5,49.83C233.63,113.85,222.29,91.85,240.96,72.81z"/>
	<path class="st7" d="M241.46,122.64c8.48,7.66,30.09,18.56,49.83-0.5C282.35,114.49,260.13,103.59,241.46,122.64z"/>
	<path class="st7" d="M241.96,172.47c-7.84-8.34-19.16-29.71-0.5-49.83C249.3,131.43,260.62,153.43,241.96,172.47z"/>
	<path class="st7" d="M418.72,301.69c-8.5-7.66-30.09-18.56-49.83,0.5C377.83,309.84,400.06,320.73,418.72,301.69z"/>
	<path class="st7" d="M418.22,251.85c7.84,8.34,19.16,29.71,0.5,49.83C410.89,292.9,399.56,270.9,418.22,251.85z"/>
	<path class="st7" d="M418.72,301.69c8.5,7.66,30.09,18.56,49.83-0.5C459.61,293.53,437.39,282.64,418.72,301.69z"/>
	<path class="st7" d="M419.22,351.52c-7.82-8.34-19.15-29.71-0.5-49.83C426.56,310.48,437.9,332.48,419.22,351.52z"/>
</g>
<path class="st3" d="M240.18,120.01c-0.76-18.2-12.43-54.89-56.11-56.1C185.34,82.61,197.72,120.01,240.18,120.01z"/>
<path class="st3" d="M296.28,63.91c-0.76,18.2-12.43,54.89-56.1,56.1C241.44,101.31,253.82,63.91,296.28,63.91z"/>
<path class="st3" d="M240.18,120.01c0.75,18.2,12.43,54.89,56.1,56.1C295.01,157.41,282.63,120.01,240.18,120.01z"/>
<path class="st3" d="M184.08,176.11c0.75-18.2,12.43-54.89,56.1-56.1C238.91,138.71,226.52,176.11,184.08,176.11z"/>
<path class="st3" d="M420.29,300.12c-0.76-18.2-12.43-54.89-56.11-56.1C365.45,262.72,377.83,300.12,420.29,300.12z"/>
<path class="st3" d="M476.39,244.02c-0.76,18.2-12.43,54.89-56.11,56.1C421.55,281.42,433.93,244.02,476.39,244.02z"/>
<path class="st3" d="M420.3,298.55c0.75,18.2,12.43,54.89,56.1,56.1C475.13,335.95,462.74,298.55,420.3,298.55z"/>
<path class="st3" d="M364.19,354.65c0.76-18.2,12.43-54.89,56.11-56.1C419.03,317.25,406.64,354.65,364.19,354.65z"/>
<path class="st7" d="M442.05,109.02l67.84-68.16l-136,0.31L442.05,109.02z"/>
<path class="st8" d="M442.05,109.02l-67.84,68.16l136-0.31L442.05,109.02z"/>
<path class="st3" d="M442.05,109.02L373.9,41.18l0.31,136L442.05,109.02z"/>
<path class="st3" d="M442.05,109.02l68.16,67.84l-0.31-136L442.05,109.02z"/>
<path id="LICHTBLAUW_ONDER_4_" class="st0" d="M547.41,0.26H-0.31l547.71,547.71V0.26z"/>
<g id="KLEUR_4_">
	<path class="st9" d="M242.26,121.54c-8.49-7.65-30.06-18.54-49.79,0.5C201.4,129.68,223.6,140.56,242.26,121.54z"/>
	<path class="st9" d="M241.76,71.74c7.82,8.33,19.13,29.69,0.5,49.79C234.43,112.75,223.1,90.77,241.76,71.74z"/>
	<path class="st9" d="M242.26,121.54c8.48,7.65,30.06,18.54,49.79-0.5C283.11,113.39,260.9,102.51,242.26,121.54z"/>
	<path class="st9" d="M242.75,171.33c-7.83-8.33-19.14-29.69-0.5-49.79C250.09,130.32,261.4,152.3,242.75,171.33z"/>
	<path class="st9" d="M419.37,300.43c-8.49-7.65-30.06-18.54-49.79,0.5C378.51,308.58,400.72,319.46,419.37,300.43z"/>
	<path class="st9" d="M418.87,250.64c7.83,8.33,19.15,29.69,0.5,49.79C411.54,291.65,400.22,269.67,418.87,250.64z"/>
	<path class="st9" d="M419.37,300.43c8.49,7.65,30.06,18.54,49.79-0.5C460.22,292.28,438.01,281.4,419.37,300.43z"/>
	<path class="st9" d="M419.86,350.22c-7.82-8.33-19.13-29.69-0.5-49.79C427.2,309.21,438.52,331.19,419.86,350.22z"/>
</g>
<path class="st3" d="M240.97,118.91c-0.76-18.18-12.42-54.84-56.07-56.06C186.18,81.54,198.55,118.91,240.97,118.91z"/>
<path class="st3" d="M297.03,62.85c-0.76,18.18-12.42,54.84-56.05,56.06C242.23,100.22,254.6,62.85,297.03,62.85z"/>
<path class="st3" d="M240.97,118.91c0.75,18.18,12.42,54.84,56.05,56.06C295.76,156.28,283.38,118.91,240.97,118.91z"/>
<path class="st3" d="M184.92,174.96c0.75-18.18,12.42-54.84,56.05-56.06C239.7,137.59,227.33,174.96,184.92,174.96z"/>
<path class="st3" d="M420.93,298.87c-0.76-18.18-12.42-54.84-56.07-56.06C366.14,261.5,378.51,298.87,420.93,298.87z"/>
<path class="st10" d="M476.99,242.81c-0.76,18.18-12.42,54.84-56.07,56.06C422.19,280.18,434.56,242.81,476.99,242.81z"/>
<path class="st3" d="M420.94,297.3c0.75,18.18,12.42,54.84,56.05,56.06C475.72,334.67,463.35,297.3,420.94,297.3z"/>
<path class="st3" d="M364.87,353.35c0.76-18.18,12.42-54.84,56.07-56.06C419.67,315.98,407.3,353.35,364.87,353.35z"/>
<path class="st9" d="M390.26,164.26c22.62-23.54,81.87-58.99,141.98-8.78C508.35,179.1,447.31,214.65,390.26,164.26z"/>
<path class="st3" d="M381.48,22.28c-20.58,25.35-48.45,88.51,8.79,141.98C410.77,137.64,438.53,72.68,381.48,22.28z"/>
<path id="LICHTBLAUW_ONDER_7_" class="st11" d="M547.25,0.26H-0.31l547.55,547.55V0.26z"/>
<g id="KLEUR_7_">
	<path class="st12" d="M242.19,121.5c-8.49-7.65-30.05-18.54-49.78,0.5C201.34,129.64,223.53,140.52,242.19,121.5z"/>
	<path class="st12" d="M241.69,71.72c7.82,8.33,19.13,29.68,0.5,49.78C234.36,112.72,223.03,90.75,241.69,71.72z"/>
	<path class="st12" d="M242.19,121.5c8.47,7.65,30.05,18.54,49.78-0.5C283.03,113.36,260.83,102.48,242.19,121.5z"/>
	<path class="st12" d="M242.68,171.28c-7.83-8.33-19.14-29.68-0.5-49.78C250.01,130.28,261.33,152.26,242.68,171.28z"/>
	<path class="st12" d="M419.25,300.34c-8.49-7.65-30.05-18.54-49.78,0.5C378.4,308.49,400.6,319.37,419.25,300.34z"/>
	<path class="st12" d="M418.75,250.57c7.83,8.33,19.14,29.68,0.5,49.78C411.42,291.57,400.11,269.59,418.75,250.57z"/>
	<path class="st12" d="M419.25,300.34c8.49,7.65,30.05,18.54,49.78-0.5C460.09,292.2,437.89,281.32,419.25,300.34z"/>
	<path class="st12" d="M419.74,350.12c-7.81-8.33-19.13-29.68-0.5-49.78C427.07,309.12,438.4,331.1,419.74,350.12z"/>
</g>
<path class="st13" d="M240.9,118.87c-0.76-18.18-12.42-54.83-56.05-56.04C186.12,81.51,198.49,118.87,240.9,118.87z"/>
<path class="st13" d="M296.94,62.83c-0.76,18.17-12.42,54.83-56.04,56.04C242.16,100.19,254.53,62.83,296.94,62.83z"/>
<path class="st13" d="M240.9,118.87c0.75,18.18,12.42,54.83,56.04,56.04C295.67,156.23,283.3,118.87,240.9,118.87z"/>
<path class="st13" d="M184.87,174.91c0.75-18.18,12.42-54.83,56.04-56.04C239.64,137.55,227.27,174.91,184.87,174.91z"/>
<path class="st13" d="M420.81,298.78c-0.76-18.18-12.42-54.83-56.05-56.04C366.03,261.42,378.4,298.78,420.81,298.78z"/>
<path class="st13" d="M476.85,242.74c-0.76,18.18-12.42,54.83-56.05,56.04C422.07,280.1,434.44,242.74,476.85,242.74z"/>
<path class="st13" d="M420.81,297.21c0.75,18.18,12.42,54.83,56.04,56.04C475.57,334.57,463.21,297.21,420.81,297.21z"/>
<path class="st13" d="M366.33,353.25c0.76-18.18,12.42-54.83,56.05-56.04C421.11,315.89,408.74,353.25,366.33,353.25z"/>
<path class="st13" d="M482.04,163.8c-28.95,28.83-75.78,28.74-104.62-0.21c-28.83-28.95-28.74-75.78,0.21-104.62L482.04,163.8z"/>
<path class="st13" d="M376.64,59.97c28.95-28.83,75.79-28.73,104.62,0.21c28.83,28.95,28.74,75.79-0.21,104.62L376.64,59.97z"/>
</svg>
