<?xml version="1.0" encoding="utf-8"?>
<!-- Generator: Adobe Illustrator 25.0.0, SVG Export Plug-In . SVG Version: 6.00 Build 0)  -->
<svg version="1.1" id="Laag_1" xmlns="http://www.w3.org/2000/svg" xmlns:xlink="http://www.w3.org/1999/xlink" x="0px" y="0px"
	 viewBox="0 0 538.07 539.41" style="enable-background:new 0 0 538.07 539.41;" xml:space="preserve">
<style type="text/css">
	.st0{fill:#1A1A1A;}
	.st1{fill:#E94C50;}
	.st2{fill:#E94D50;}
</style>
<path id="LICHTBLAUW_ONDER_6_" class="st0" d="M538.16-0.5H-2.11l540.27,540.27V-0.5z"/>
<g id="KLEUR_6_">
	<path class="st1" d="M237.16,119.13c-8.37-7.55-29.65-18.29-49.12,0.49C196.86,127.16,218.75,137.9,237.16,119.13z"/>
	<path class="st1" d="M236.67,70.01c7.71,8.22,18.87,29.28,0.49,49.12C229.44,110.47,218.26,88.78,236.67,70.01z"/>
	<path class="st1" d="M237.16,119.13c8.36,7.55,29.65,18.29,49.12-0.49C277.46,111.09,255.55,100.36,237.16,119.13z"/>
	<path class="st1" d="M237.65,168.24c-7.72-8.22-18.88-29.28-0.49-49.12C244.88,127.79,256.04,149.47,237.65,168.24z"/>
	<path class="st1" d="M411.86,295.59c-8.37-7.55-29.65-18.29-49.12,0.49C371.56,303.63,393.47,314.36,411.86,295.59z"/>
	<path class="st1" d="M411.37,246.48c7.72,8.22,18.88,29.28,0.49,49.12C404.14,286.93,392.98,265.25,411.37,246.48z"/>
	<path class="st1" d="M411.86,295.59c8.37,7.55,29.65,18.29,49.12-0.49C452.16,287.56,430.26,276.82,411.86,295.59z"/>
	<path class="st1" d="M412.35,344.71c-7.71-8.22-18.87-29.28-0.49-49.12C419.59,304.26,430.76,325.94,412.35,344.71z"/>
</g>
<path class="st0" d="M235.89,116.54c-0.75-17.93-12.25-54.1-55.3-55.29C181.84,79.67,194.05,116.54,235.89,116.54z"/>
<path class="st0" d="M291.19,61.24c-0.75,17.93-12.25,54.1-55.29,55.29C237.13,98.1,249.34,61.24,291.19,61.24z"/>
<path class="st0" d="M235.89,116.54c0.74,17.93,12.25,54.1,55.29,55.29C289.93,153.4,277.73,116.54,235.89,116.54z"/>
<path class="st0" d="M180.6,171.83c0.74-17.93,12.25-54.1,55.29-55.29C234.64,134.97,222.44,171.83,180.6,171.83z"/>
<path class="st0" d="M413.41,294.05c-0.75-17.93-12.25-54.1-55.3-55.29C359.36,257.19,371.56,294.05,413.41,294.05z"/>
<path class="st0" d="M468.7,238.76c-0.75,17.93-12.25,54.1-55.3,55.29C414.65,275.62,426.85,238.76,468.7,238.76z"/>
<path class="st0" d="M413.41,294.05c0.74,17.93,12.25,54.1,55.29,55.29C467.45,330.92,455.24,294.05,413.41,294.05z"/>
<path class="st0" d="M358.11,349.35c0.75-17.93,12.25-54.1,55.3-55.29C412.16,312.48,399.95,349.35,358.11,349.35z"/>
<path class="st2" d="M488.37,57.23c30.22,34.32,26.88,86.64-7.44,116.86c-34.32,30.21-86.64,26.88-116.85-7.45L488.37,57.23z"/>
<path class="st1" d="M364.07,166.65c-30.21-34.32-26.88-86.64,7.44-116.86c34.32-30.21,86.64-26.88,116.86,7.45L364.07,166.65z"/>
<path class="st0" d="M426.9,112.61c0.54-13.05,8.91-39.38,40.25-40.25C466.24,85.78,457.36,112.61,426.9,112.61z"/>
<path class="st0" d="M386.65,72.36c0.54,13.05,8.91,39.38,40.25,40.25C425.99,99.2,417.1,72.36,386.65,72.36z"/>
<path class="st0" d="M426.9,112.62c-0.54,13.05-8.93,39.38-40.25,40.25C387.55,139.45,396.44,112.62,426.9,112.62z"/>
<path class="st0" d="M467.15,152.87c-0.54-13.06-8.91-39.39-40.25-40.26C427.81,126.03,436.69,152.87,467.15,152.87z"/>
</svg>
